<svg width="191" height="43" xmlns="http://www.w3.org/2000/svg" xmlns:xlink="http://www.w3.org/1999/xlink" overflow="hidden"><defs><clipPath id="clip0"><path d="M741 109 932 109 932 152 741 152Z" fill-rule="evenodd" clip-rule="evenodd"/></clipPath><clipPath id="clip1"><path d="M741 109 840 109 840 151 741 151Z" fill-rule="evenodd" clip-rule="evenodd"/></clipPath><clipPath id="clip2"><path d="M741 109 840 109 840 151 741 151Z" fill-rule="evenodd" clip-rule="evenodd"/></clipPath><clipPath id="clip3"><path d="M741 109 933 109 933 151 741 151Z" fill-rule="evenodd" clip-rule="evenodd"/></clipPath><clipPath id="clip4"><path d="M861 109 931 109 931 151 861 151Z" fill-rule="evenodd" clip-rule="evenodd"/></clipPath><clipPath id="clip5"><path d="M861 109 931 109 931 151 861 151Z" fill-rule="evenodd" clip-rule="evenodd"/></clipPath><clipPath id="clip6"><path d="M741 109 931 109 931 151 741 151Z" fill-rule="evenodd" clip-rule="evenodd"/></clipPath><clipPath id="clip7"><path d="M838 113 860 113 860 150 838 150Z" fill-rule="evenodd" clip-rule="evenodd"/></clipPath><clipPath id="clip8"><path d="M838 113 860 113 860 150 838 150Z" fill-rule="evenodd" clip-rule="evenodd"/></clipPath><clipPath id="clip9"><path d="M766 112 961 112 961 156 766 156Z" fill-rule="evenodd" clip-rule="evenodd"/></clipPath></defs><g clip-path="url(#clip0)" transform="translate(-741 -109)"><g clip-path="url(#clip1)"><g clip-path="url(#clip2)"><g clip-path="url(#clip3)"><path d="M4.52294 5.61204 10.5188 5.81189 10.6901 14.2917 16.8002 14.5202 16.6003 6.12595 22.5962 6.21162 23.1101 28.9959 17.0286 28.9959 16.8287 19.8022 10.8329 19.5167 10.8329 28.1107 4.63715 27.5113 4.52294 5.61204Z" stroke="#000000" stroke-width="0.0808657" fill="#282C34" fill-rule="evenodd" transform="matrix(1.01686 0 -0 1 741 109)"/><path d="M33.2473 4.53051 28.2503 7.44015 28.535 23.5143 34.1328 27.0801 41.0434 27.1672 46.5542 23.8543 46.1193 7.75641 40.8377 4.55422 33.2473 4.53051ZM36.1334 8.89497 38.3313 8.89497 40.1262 9.8912 40.4108 21.4033 38.8136 22.3995 36.331 22.3758 34.6153 21.4033 34.4175 9.78051 36.1334 8.89497Z" stroke="#000000" stroke-width="0.0808657" fill="#282C34" fill-rule="evenodd" transform="matrix(1.01686 0 -0 1 741 109)"/><path d="M57.0011 5.38362 51.4047 4.86967 51.8902 26.4833 67.5651 27.3114 67.5651 23.9137 57.6577 23.3141 57.0011 5.38362Z" stroke="#000000" stroke-width="0.0808657" fill="#282C34" fill-rule="evenodd" transform="matrix(1.01686 0 -0 1 741 109)"/><path d="M73.818 6.9254 68.336 6.44002 68.8213 27.3114 84.4106 29.2011 84.3249 25.2556 74.4174 24.4561 73.818 6.9254Z" stroke="#000000" stroke-width="0.0808657" fill="#282C34" fill-rule="evenodd" transform="matrix(1.01686 0 -0 1 741 109)"/><path d="M85.9525 29.5098 90.5492 30.9945 92.4337 30.9945 92.2338 23.9137 96.9163 8.83837 91.4343 8.32445 88.722 17.3182 85.3243 7.81051 79.6424 7.32513 85.6383 23.3141 85.9525 29.5098Z" stroke="#000000" stroke-width="0.0808657" fill="#282C34" fill-rule="evenodd" transform="matrix(1.01686 0 -0 1 741 109)"/><path d="M107.423 26.2834 107.423 26.2834 110.535 34.4494 113.619 34.5635 116.645 12.8356 112.249 12.6358 111.135 20.8301 108.223 12.3502 105.253 12.1218 104.54 20.3447 102.855 12.0362 97.4301 11.5508 101.741 33.7925 105.139 34.0782 107.423 26.2834Z" stroke="#000000" stroke-width="0.0808657" fill="#282C34" fill-rule="evenodd" transform="matrix(1.01686 0 -0 1 741 109)"/><path d="M124.466 13.9236 119.754 16.8016 120.584 32.3066 125.866 35.5877 132.175 35.7934 137.172 32.8759 136.461 17.4025 131.266 14.0896 124.466 13.9236ZM126.98 18.2011 129.265 18.2011 130.776 19.2052 131.464 30.3931 129.953 31.2786 127.668 31.1916 125.984 30.1084 125.47 18.9206 126.98 18.2011Z" stroke="#000000" stroke-width="0.0808657" fill="#282C34" fill-rule="evenodd" transform="matrix(1.01686 0 -0 1 741 109)"/><path d="M145.142 15.3784 140.746 18.288 141.458 33.7931 146.652 37.1611 153.618 37.3587 158.014 34.4807 157.049 19.1736 151.934 15.8923 145.142 15.3784ZM147.656 19.8852 149.854 19.9721 151.539 20.8893 152.337 32.2828 150.938 32.9627 148.652 32.8759 146.937 31.6819 146.138 20.6837 147.656 19.8852Z" stroke="#000000" stroke-width="0.0808657" fill="#282C34" fill-rule="evenodd" transform="matrix(1.01686 0 -0 1 741 109)"/><path d="M165.47 13.9236 166.672 35.8804 178.571 36.1886 183.742 32.9627 182.77 17.1732 177.259 14.0896 165.47 13.9236ZM171.463 18.375 175.258 18.4066 176.974 19.4029 177.662 30.7647 176.262 31.6819 172.262 31.5633 171.463 18.375Z" stroke="#000000" stroke-width="0.0808657" fill="#282C34" fill-rule="evenodd" transform="matrix(1.01686 0 -0 1 741 109)"/></g></g></g><g clip-path="url(#clip4)"><g clip-path="url(#clip5)"><g clip-path="url(#clip6)"><path d="M4.52294 5.61204 10.5188 5.81189 10.6901 14.2917 16.8002 14.5202 16.6003 6.12595 22.5962 6.21162 23.1101 28.9959 17.0286 28.9959 16.8287 19.8022 10.8329 19.5167 10.8329 28.1107 4.63715 27.5113 4.52294 5.61204Z" stroke="#000000" stroke-width="0.0808657" fill="#282C34" fill-rule="evenodd" transform="matrix(1.00632 0 -0 1 741.57 109)"/><path d="M33.2473 4.53051 28.2503 7.44015 28.535 23.5143 34.1328 27.0801 41.0434 27.1672 46.5542 23.8543 46.1193 7.75641 40.8377 4.55422 33.2473 4.53051ZM36.1334 8.89497 38.3313 8.89497 40.1262 9.8912 40.4108 21.4033 38.8136 22.3995 36.331 22.3758 34.6153 21.4033 34.4175 9.78051 36.1334 8.89497Z" stroke="#000000" stroke-width="0.0808657" fill="#282C34" fill-rule="evenodd" transform="matrix(1.00632 0 -0 1 741.57 109)"/><path d="M57.0011 5.38362 51.4047 4.86967 51.8902 26.4833 67.5651 27.3114 67.5651 23.9137 57.6577 23.3141 57.0011 5.38362Z" stroke="#000000" stroke-width="0.0808657" fill="#282C34" fill-rule="evenodd" transform="matrix(1.00632 0 -0 1 741.57 109)"/><path d="M73.818 6.9254 68.336 6.44002 68.8213 27.3114 84.4106 29.2011 84.3249 25.2556 74.4174 24.4561 73.818 6.9254Z" stroke="#000000" stroke-width="0.0808657" fill="#282C34" fill-rule="evenodd" transform="matrix(1.00632 0 -0 1 741.57 109)"/><path d="M85.9525 29.5098 90.5492 30.9945 92.4337 30.9945 92.2338 23.9137 96.9163 8.83837 91.4343 8.32445 88.722 17.3182 85.3243 7.81051 79.6424 7.32513 85.6383 23.3141 85.9525 29.5098Z" stroke="#000000" stroke-width="0.0808657" fill="#282C34" fill-rule="evenodd" transform="matrix(1.00632 0 -0 1 741.57 109)"/><path d="M107.423 26.2834 107.423 26.2834 110.535 34.4494 113.619 34.5635 116.645 12.8356 112.249 12.6358 111.135 20.8301 108.223 12.3502 105.253 12.1218 104.54 20.3447 102.855 12.0362 97.4301 11.5508 101.741 33.7925 105.139 34.0782 107.423 26.2834Z" stroke="#000000" stroke-width="0.0808657" fill="#282C34" fill-rule="evenodd" transform="matrix(1.00632 0 -0 1 741.57 109)"/><path d="M124.466 13.9236 119.754 16.8016 120.584 32.3066 125.866 35.5877 132.175 35.7934 137.172 32.8759 136.461 17.4025 131.266 14.0896 124.466 13.9236ZM126.98 18.2011 129.265 18.2011 130.776 19.2052 131.464 30.3931 129.953 31.2786 127.668 31.1916 125.984 30.1084 125.47 18.9206 126.98 18.2011Z" stroke="#000000" stroke-width="0.0808657" fill="#282C34" fill-rule="evenodd" transform="matrix(1.00632 0 -0 1 741.57 109)"/><path d="M145.142 15.3784 140.746 18.288 141.458 33.7931 146.652 37.1611 153.618 37.3587 158.014 34.4807 157.049 19.1736 151.934 15.8923 145.142 15.3784ZM147.656 19.8852 149.854 19.9721 151.539 20.8893 152.337 32.2828 150.938 32.9627 148.652 32.8759 146.937 31.6819 146.138 20.6837 147.656 19.8852Z" stroke="#000000" stroke-width="0.0808657" fill="#282C34" fill-rule="evenodd" transform="matrix(1.00632 0 -0 1 741.57 109)"/><path d="M165.47 13.9236 166.672 35.8804 178.571 36.1886 183.742 32.9627 182.77 17.1732 177.259 14.0896 165.47 13.9236ZM171.463 18.375 175.258 18.4066 176.974 19.4029 177.662 30.7647 176.262 31.6819 172.262 31.5633 171.463 18.375Z" stroke="#000000" stroke-width="0.0808657" fill="#282C34" fill-rule="evenodd" transform="matrix(1.00632 0 -0 1 741.57 109)"/></g></g></g><g clip-path="url(#clip7)"><g clip-path="url(#clip8)"><g clip-path="url(#clip9)"><path d="M4.58373 5.68746 10.6602 5.89 10.8338 14.4838 17.026 14.7153 16.8234 6.20828 22.8998 6.2951 23.4207 29.3856 17.2574 29.3856 17.0549 20.0683 10.9784 19.779 10.9784 28.4884 4.69947 27.881 4.58373 5.68746Z" stroke="#000000" stroke-width="0.0819525" fill="#282C34" fill-rule="evenodd" transform="matrix(-1.01811 -8.90062e-08 8.74228e-08 -1 960.454 155.564)"/><path d="M33.6941 4.5914 28.63 7.54014 28.9184 23.8303 34.5916 27.4441 41.595 27.5323 47.1799 24.1749 46.7391 7.86065 41.3865 4.61542 33.6941 4.5914ZM36.619 9.01451 38.8465 9.01451 40.6655 10.0241 40.9539 21.6909 39.3352 22.7005 36.8193 22.6765 35.0805 21.6909 34.88 9.91195 36.619 9.01451Z" stroke="#000000" stroke-width="0.0819525" fill="#282C34" fill-rule="evenodd" transform="matrix(-1.01811 -8.90062e-08 8.74228e-08 -1 960.454 155.564)"/><path d="M57.7671 5.45597 52.0956 4.93512 52.5876 26.8392 68.4731 27.6784 68.4731 24.235 58.4325 23.6274 57.7671 5.45597Z" stroke="#000000" stroke-width="0.0819525" fill="#282C34" fill-rule="evenodd" transform="matrix(-1.01811 -8.90062e-08 8.74228e-08 -1 960.454 155.564)"/><path d="M74.8101 7.01847 69.2544 6.52657 69.7462 27.6784 85.5451 29.5936 85.4581 25.595 75.4175 24.7848 74.8101 7.01847Z" stroke="#000000" stroke-width="0.0819525" fill="#282C34" fill-rule="evenodd" transform="matrix(-1.01811 -8.90062e-08 8.74228e-08 -1 960.454 155.564)"/><path d="M87.1076 29.9064 91.7661 31.411 93.6759 31.411 93.4733 24.235 98.2188 8.95715 92.6631 8.43633 89.9143 17.551 86.471 7.91547 80.7127 7.42357 86.7892 23.6274 87.1076 29.9064Z" stroke="#000000" stroke-width="0.0819525" fill="#282C34" fill-rule="evenodd" transform="matrix(-1.01811 -8.90062e-08 8.74228e-08 -1 960.454 155.564)"/><path d="M108.867 26.6366 108.867 26.6366 112.021 34.9123 115.146 35.028 118.213 13.0081 113.757 12.8056 112.629 21.11 109.677 12.5162 106.668 12.2847 105.944 20.6181 104.237 12.1979 98.7395 11.706 103.109 34.2467 106.552 34.5362 108.867 26.6366Z" stroke="#000000" stroke-width="0.0819525" fill="#282C34" fill-rule="evenodd" transform="matrix(-1.01811 -8.90062e-08 8.74228e-08 -1 960.454 155.564)"/><path d="M126.139 14.1107 121.363 17.0274 122.205 32.7408 127.557 36.0659 133.951 36.2744 139.016 33.3177 138.294 17.6364 133.03 14.279 126.139 14.1107ZM128.687 18.4457 131.003 18.4457 132.533 19.4633 133.23 30.8015 131.7 31.699 129.384 31.6108 127.677 30.5131 127.156 19.1749 128.687 18.4457Z" stroke="#000000" stroke-width="0.0819525" fill="#282C34" fill-rule="evenodd" transform="matrix(-1.01811 -8.90062e-08 8.74228e-08 -1 960.454 155.564)"/><path d="M147.092 15.5851 142.637 18.5338 143.359 34.2472 148.623 37.6606 155.682 37.8608 160.137 34.9441 159.16 19.4313 153.976 16.1059 147.092 15.5851ZM149.641 20.1524 151.868 20.2406 153.575 21.17 154.384 32.7167 152.966 33.4057 150.65 33.3177 148.911 32.1077 148.102 20.9617 149.641 20.1524Z" stroke="#000000" stroke-width="0.0819525" fill="#282C34" fill-rule="evenodd" transform="matrix(-1.01811 -8.90062e-08 8.74228e-08 -1 960.454 155.564)"/><path d="M167.694 14.1107 168.912 36.3626 180.971 36.6749 186.212 33.4057 185.226 17.404 179.641 14.279 167.694 14.1107ZM173.768 18.6219 177.614 18.654 179.352 19.6636 180.05 31.1782 178.631 32.1077 174.577 31.9874 173.768 18.6219Z" stroke="#000000" stroke-width="0.0819525" fill="#282C34" fill-rule="evenodd" transform="matrix(-1.01811 -8.90062e-08 8.74228e-08 -1 960.454 155.564)"/></g></g></g></g></svg>