<svg width="191" height="44" xmlns="http://www.w3.org/2000/svg" xmlns:xlink="http://www.w3.org/1999/xlink" overflow="hidden"><defs><clipPath id="clip0"><path d="M69 21 260 21 260 65 69 65Z" fill-rule="evenodd" clip-rule="evenodd"/></clipPath><clipPath id="clip1"><path d="M69 22 167 22 167 64 69 64Z" fill-rule="evenodd" clip-rule="evenodd"/></clipPath><clipPath id="clip2"><path d="M69 22 167 22 167 64 69 64Z" fill-rule="evenodd" clip-rule="evenodd"/></clipPath><clipPath id="clip3"><path d="M69 22 259 22 259 64 69 64Z" fill-rule="evenodd" clip-rule="evenodd"/></clipPath><clipPath id="clip4"><path d="M189 22 259 22 259 64 189 64Z" fill-rule="evenodd" clip-rule="evenodd"/></clipPath><clipPath id="clip5"><path d="M189 22 259 22 259 64 189 64Z" fill-rule="evenodd" clip-rule="evenodd"/></clipPath><clipPath id="clip6"><path d="M69 22 259 22 259 64 69 64Z" fill-rule="evenodd" clip-rule="evenodd"/></clipPath><clipPath id="clip7"><path d="M166 26 187 26 187 63 166 63Z" fill-rule="evenodd" clip-rule="evenodd"/></clipPath><clipPath id="clip8"><path d="M166 26 187 26 187 64 166 64Z" fill-rule="evenodd" clip-rule="evenodd"/></clipPath><clipPath id="clip9"><path d="M97 25 283 25 283 69 97 69Z" fill-rule="evenodd" clip-rule="evenodd"/></clipPath></defs><g clip-path="url(#clip0)" transform="translate(-69 -21)"><g clip-path="url(#clip1)"><g clip-path="url(#clip2)"><g clip-path="url(#clip3)"><path d="M4.52294 5.61203 10.5188 5.81189 10.6901 14.2917 16.8002 14.5202 16.6003 6.12596 22.5962 6.21161 23.1101 28.9959 17.0286 28.9959 16.8287 19.8022 10.8329 19.5167 10.8329 28.1108 4.63714 27.5112 4.52294 5.61203Z" stroke="#000000" stroke-width="0.0808657" fill="#9515FF" fill-rule="evenodd" transform="matrix(1.00659 0 -0 1 69 22)"/><path d="M33.2474 4.5305 28.2504 7.44014 28.535 23.5143 34.1329 27.0802 41.0433 27.1672 46.5542 23.8543 46.1194 7.7564 40.8377 4.55422 33.2474 4.5305ZM36.1333 8.89496 38.3313 8.89496 40.1261 9.89119 40.4108 21.4032 38.8136 22.3995 36.331 22.3758 34.6152 21.4032 34.4175 9.7805 36.1333 8.89496Z" stroke="#000000" stroke-width="0.0808657" fill="#9515FF" fill-rule="evenodd" transform="matrix(1.00659 0 -0 1 69 22)"/><path d="M57.001 5.38362 51.4048 4.86968 51.8902 26.4833 67.5651 27.3113 67.5651 23.9137 57.6577 23.3141 57.001 5.38362Z" stroke="#000000" stroke-width="0.0808657" fill="#9515FF" fill-rule="evenodd" transform="matrix(1.00659 0 -0 1 69 22)"/><path d="M73.8179 6.92541 68.336 6.44003 68.8214 27.3113 84.4106 29.2013 84.325 25.2556 74.4175 24.4562 73.8179 6.92541Z" stroke="#000000" stroke-width="0.0808657" fill="#9515FF" fill-rule="evenodd" transform="matrix(1.00659 0 -0 1 69 22)"/><path d="M85.9524 29.5098 90.5492 30.9945 92.4336 30.9945 92.2338 23.9137 96.9163 8.83837 91.4343 8.32444 88.7219 17.3182 85.3243 7.81051 79.6425 7.32513 85.6383 23.3141 85.9524 29.5098Z" stroke="#000000" stroke-width="0.0808657" fill="#9515FF" fill-rule="evenodd" transform="matrix(1.00659 0 -0 1 69 22)"/><path d="M107.423 26.2835 107.423 26.2835 110.535 34.4492 113.619 34.5635 116.645 12.8356 112.249 12.6357 111.135 20.8301 108.223 12.3502 105.253 12.1218 104.54 20.3447 102.855 12.0362 97.4302 11.5508 101.741 33.7926 105.139 34.0781 107.423 26.2835Z" stroke="#000000" stroke-width="0.0808657" fill="#9515FF" fill-rule="evenodd" transform="matrix(1.00659 0 -0 1 69 22)"/><path d="M124.466 13.9236 119.754 16.8016 120.584 32.3065 125.866 35.5877 132.175 35.7933 137.172 32.8758 136.46 17.4025 131.266 14.0896 124.466 13.9236ZM126.98 18.2011 129.265 18.2011 130.776 19.2052 131.463 30.3931 129.953 31.2786 127.668 31.1916 125.984 30.1084 125.47 18.9206 126.98 18.2011Z" stroke="#000000" stroke-width="0.0808657" fill="#9515FF" fill-rule="evenodd" transform="matrix(1.00659 0 -0 1 69 22)"/><path d="M145.142 15.3784 140.746 18.288 141.457 33.7929 146.652 37.1611 153.618 37.3588 158.014 34.4808 157.049 19.1736 151.934 15.8923 145.142 15.3784ZM147.656 19.8852 149.854 19.9721 151.538 20.8893 152.337 32.2828 150.938 32.9627 148.652 32.8758 146.937 31.6819 146.138 20.6837 147.656 19.8852Z" stroke="#000000" stroke-width="0.0808657" fill="#9515FF" fill-rule="evenodd" transform="matrix(1.00659 0 -0 1 69 22)"/><path d="M165.47 13.9236 166.672 35.8803 178.571 36.1886 183.742 32.9627 182.77 17.1732 177.259 14.0896 165.47 13.9236ZM171.463 18.375 175.258 18.4066 176.974 19.4029 177.662 30.7647 176.262 31.6819 172.262 31.5633 171.463 18.375Z" stroke="#000000" stroke-width="0.0808657" fill="#9515FF" fill-rule="evenodd" transform="matrix(1.00659 0 -0 1 69 22)"/></g></g></g><g clip-path="url(#clip4)"><g clip-path="url(#clip5)"><g clip-path="url(#clip6)"><path d="M4.52294 5.61203 10.5188 5.81189 10.6901 14.2917 16.8002 14.5202 16.6003 6.12596 22.5962 6.21161 23.1101 28.9959 17.0286 28.9959 16.8287 19.8022 10.8329 19.5167 10.8329 28.1108 4.63714 27.5112 4.52294 5.61203Z" stroke="#000000" stroke-width="0.0808657" fill="#9515FF" fill-rule="evenodd" transform="matrix(1.00632 0 -0 1 69.5702 22)"/><path d="M33.2474 4.5305 28.2504 7.44014 28.535 23.5143 34.1329 27.0802 41.0433 27.1672 46.5542 23.8543 46.1194 7.7564 40.8377 4.55422 33.2474 4.5305ZM36.1333 8.89496 38.3313 8.89496 40.1261 9.89119 40.4108 21.4032 38.8136 22.3995 36.331 22.3758 34.6152 21.4032 34.4175 9.7805 36.1333 8.89496Z" stroke="#000000" stroke-width="0.0808657" fill="#9515FF" fill-rule="evenodd" transform="matrix(1.00632 0 -0 1 69.5702 22)"/><path d="M57.001 5.38362 51.4048 4.86968 51.8902 26.4833 67.5651 27.3113 67.5651 23.9137 57.6577 23.3141 57.001 5.38362Z" stroke="#000000" stroke-width="0.0808657" fill="#9515FF" fill-rule="evenodd" transform="matrix(1.00632 0 -0 1 69.5702 22)"/><path d="M73.8179 6.92541 68.336 6.44003 68.8214 27.3113 84.4106 29.2013 84.325 25.2556 74.4175 24.4562 73.8179 6.92541Z" stroke="#000000" stroke-width="0.0808657" fill="#9515FF" fill-rule="evenodd" transform="matrix(1.00632 0 -0 1 69.5702 22)"/><path d="M85.9524 29.5098 90.5492 30.9945 92.4336 30.9945 92.2338 23.9137 96.9163 8.83837 91.4343 8.32444 88.7219 17.3182 85.3243 7.81051 79.6425 7.32513 85.6383 23.3141 85.9524 29.5098Z" stroke="#000000" stroke-width="0.0808657" fill="#9515FF" fill-rule="evenodd" transform="matrix(1.00632 0 -0 1 69.5702 22)"/><path d="M107.423 26.2835 107.423 26.2835 110.535 34.4492 113.619 34.5635 116.645 12.8356 112.249 12.6357 111.135 20.8301 108.223 12.3502 105.253 12.1218 104.54 20.3447 102.855 12.0362 97.4302 11.5508 101.741 33.7926 105.139 34.0781 107.423 26.2835Z" stroke="#000000" stroke-width="0.0808657" fill="#9515FF" fill-rule="evenodd" transform="matrix(1.00632 0 -0 1 69.5702 22)"/><path d="M124.466 13.9236 119.754 16.8016 120.584 32.3065 125.866 35.5877 132.175 35.7933 137.172 32.8758 136.46 17.4025 131.266 14.0896 124.466 13.9236ZM126.98 18.2011 129.265 18.2011 130.776 19.2052 131.463 30.3931 129.953 31.2786 127.668 31.1916 125.984 30.1084 125.47 18.9206 126.98 18.2011Z" stroke="#000000" stroke-width="0.0808657" fill="#9515FF" fill-rule="evenodd" transform="matrix(1.00632 0 -0 1 69.5702 22)"/><path d="M145.142 15.3784 140.746 18.288 141.457 33.7929 146.652 37.1611 153.618 37.3588 158.014 34.4808 157.049 19.1736 151.934 15.8923 145.142 15.3784ZM147.656 19.8852 149.854 19.9721 151.538 20.8893 152.337 32.2828 150.938 32.9627 148.652 32.8758 146.937 31.6819 146.138 20.6837 147.656 19.8852Z" stroke="#000000" stroke-width="0.0808657" fill="#9515FF" fill-rule="evenodd" transform="matrix(1.00632 0 -0 1 69.5702 22)"/><path d="M165.47 13.9236 166.672 35.8803 178.571 36.1886 183.742 32.9627 182.77 17.1732 177.259 14.0896 165.47 13.9236ZM171.463 18.375 175.258 18.4066 176.974 19.4029 177.662 30.7647 176.262 31.6819 172.262 31.5633 171.463 18.375Z" stroke="#000000" stroke-width="0.0808657" fill="#9515FF" fill-rule="evenodd" transform="matrix(1.00632 0 -0 1 69.5702 22)"/></g></g></g><g clip-path="url(#clip7)"><g clip-path="url(#clip8)"><g clip-path="url(#clip9)"><path d="M4.45462 5.52726 10.3599 5.72411 10.5286 14.0759 16.5464 14.3008 16.3496 6.03343 22.2549 6.11779 22.761 28.5579 16.7714 28.5579 16.5745 19.5031 10.6692 19.2219 10.6692 27.6862 4.5671 27.0956 4.45462 5.52726Z" stroke="#000000" stroke-width="0.0796443" fill="#9515FF" fill-rule="evenodd" transform="matrix(-1 -8.74228e-08 8.99564e-08 -1.02898 282.888 68.5645)"/><path d="M32.7452 4.46207 27.8237 7.32776 28.104 23.1591 33.6174 26.6712 40.4234 26.7568 45.851 23.494 45.4228 7.63925 40.2209 4.48543 32.7452 4.46207ZM35.5875 8.7606 37.7524 8.7606 39.5201 9.74179 39.8004 21.08 38.2274 22.0611 35.7822 22.0378 34.0924 21.08 33.8977 9.63277 35.5875 8.7606Z" stroke="#000000" stroke-width="0.0796443" fill="#9515FF" fill-rule="evenodd" transform="matrix(-1 -8.74228e-08 8.99564e-08 -1.02898 282.888 68.5645)"/><path d="M56.14 5.3023 50.6284 4.79613 51.1064 26.0833 66.5446 26.8988 66.5446 23.5525 56.7868 22.9619 56.14 5.3023Z" stroke="#000000" stroke-width="0.0796443" fill="#9515FF" fill-rule="evenodd" transform="matrix(-1 -8.74228e-08 8.99564e-08 -1.02898 282.888 68.5645)"/><path d="M72.7029 6.8208 67.3038 6.34276 67.7819 26.8988 83.1356 28.7602 83.0513 24.8741 73.2935 24.0868 72.7029 6.8208Z" stroke="#000000" stroke-width="0.0796443" fill="#9515FF" fill-rule="evenodd" transform="matrix(-1 -8.74228e-08 8.99564e-08 -1.02898 282.888 68.5645)"/><path d="M84.6541 29.0641 89.1815 30.5263 91.0375 30.5263 90.8406 23.5525 95.4524 8.70487 90.0533 8.19871 87.3818 17.0566 84.0355 7.69254 78.4395 7.21449 84.3448 22.9619 84.6541 29.0641Z" stroke="#000000" stroke-width="0.0796443" fill="#9515FF" fill-rule="evenodd" transform="matrix(-1 -8.74228e-08 8.99564e-08 -1.02898 282.888 68.5645)"/><path d="M105.801 25.8865 105.801 25.8865 108.866 33.9289 111.903 34.0414 114.884 12.6417 110.553 12.4449 109.456 20.5155 106.588 12.1637 103.664 11.9387 102.961 20.0374 101.301 11.8544 95.9586 11.3763 100.205 33.2821 103.551 33.5634 105.801 25.8865Z" stroke="#000000" stroke-width="0.0796443" fill="#9515FF" fill-rule="evenodd" transform="matrix(-1 -8.74228e-08 8.99564e-08 -1.02898 282.888 68.5645)"/><path d="M122.586 13.7133 117.945 16.5478 118.763 31.8185 123.964 35.0502 130.179 35.2527 135.1 32.3792 134.399 17.1396 129.283 13.8768 122.586 13.7133ZM125.062 17.9261 127.313 17.9261 128.8 18.9151 129.478 29.934 127.99 30.8062 125.74 30.7205 124.081 29.6537 123.575 18.6348 125.062 17.9261Z" stroke="#000000" stroke-width="0.0796443" fill="#9515FF" fill-rule="evenodd" transform="matrix(-1 -8.74228e-08 8.99564e-08 -1.02898 282.888 68.5645)"/><path d="M142.95 15.1461 138.62 18.0118 139.321 33.2825 144.437 36.5999 151.298 36.7945 155.627 33.96 154.677 18.884 149.639 15.6523 142.95 15.1461ZM145.426 19.5848 147.591 19.6705 149.25 20.5738 150.036 31.7951 148.658 32.4648 146.407 32.3792 144.717 31.2033 143.931 20.3713 145.426 19.5848Z" stroke="#000000" stroke-width="0.0796443" fill="#9515FF" fill-rule="evenodd" transform="matrix(-1 -8.74228e-08 8.99564e-08 -1.02898 282.888 68.5645)"/><path d="M162.971 13.7133 164.154 35.3383 175.874 35.642 180.967 32.4648 180.009 16.9138 174.581 13.8768 162.971 13.7133ZM168.873 18.0975 172.611 18.1286 174.301 19.1098 174.978 30.3 173.6 31.2033 169.66 31.0865 168.873 18.0975Z" stroke="#000000" stroke-width="0.0796443" fill="#9515FF" fill-rule="evenodd" transform="matrix(-1 -8.74228e-08 8.99564e-08 -1.02898 282.888 68.5645)"/></g></g></g></g></svg>